<svg xmlns="http://www.w3.org/2000/svg" viewBox="0 0 234.26 251.72"><defs><style>.cls-1{fill:#f4f4f4;}.cls-2{opacity:0.22;}.cls-3{fill:#020202;}.cls-4{stroke:#000;stroke-miterlimit:10;stroke-width:0.25px;opacity:0.68;}</style></defs><title>Asset 1</title><g id="Layer_2" data-name="Layer 2"><g id="Layer_2-2" data-name="Layer 2"><polygon class="cls-1" points="17.76 187.92 17.76 63.8 125.26 1.73 232.76 63.8 232.76 187.92 125.25 249.99 17.76 187.92"/><path d="M125.26,3.46l106,61.2v122.4l-106,61.2-106-61.2V64.66l106-61.2m0-3.46L16.5,62.79l-.24.14V188.79l108.51,62.65.49.28,109-62.93V62.93L125.26,0Z"/><g class="cls-2"><polygon class="cls-3" points="16.38 188.72 16.38 63 16.5 62.94 125.63 126.43 124.64 251.22 16.38 188.72"/><path d="M16.51,63.09l109,63.41-1,124.51-108-62.36V63.09m0-.3-.24.14V188.79l108.51,62.65,1-125.08L16.5,62.79Z"/></g><polygon class="cls-4" points="125.26 250.86 103.26 250.86 0.26 190.86 17.26 181.86 17.26 188.86 125.26 250.86"/></g><g id="Layer_1-2" data-name="Layer 1"><path d="M234,63.66v125L125.26,251.43l-.24-.13,1-124.8L234,63.66m.25-.43-108.5,63.13-1,125.08.49.28,109-62.93V63.23Z"/><path d="M125.26.29,234,63.07v0l-108.25,63L17,62.79,125.26.29m0-.29L16.5,62.79l109.26,63.57,108.5-63.13v-.3L125.26,0Z"/></g><g id="Layer_3" data-name="Layer 3"><path d="M149.93,177.75l-.77,6.42-2.91,1.65L149.87,160l3.77-2.15,3.92,21.52-3,1.74-.84-5.5Zm3.21-5.52c-.63-4.19-1.13-7.23-1.4-9.34l-.06,0c-.19,2.29-.68,6.14-1.26,10.85Z"/><path d="M160.06,159.79c.8,4.7,1.66,9.82,1.95,12.69l0,0c.21-2.91,1.22-9.27,1.94-14.91l2.86-1.63L163.47,176l-3.08,1.75L157,161.53Z"/><path d="M170.44,164.05c0,2.3.22,4.75,1.81,3.84,1.43-.81,1.6-2.69,1.64-3.33l2.74-1.56c0,.6-.29,6-4.4,8.38s-4.61-2.33-4.63-6.91c0-5.75,1.44-10.11,4.58-11.9,3.6-2,4.5,1.39,4.53,6.11,0,.64,0,1.5,0,1.82Zm3.44-5c0-1.76-.17-3.92-1.68-3.06s-1.73,3.69-1.73,5Z"/><path d="M178.63,155.37c0-3,0-4.85-.06-6.13l2.74-1.55c0,.3.07,1,.08,2.94a7.29,7.29,0,0,1,3.23-5.14l0,4.69c-2,1.08-3.16,2.6-3.14,6l.05,9.51-2.86,1.63Z"/><path d="M194.09,154.62c0,.89.07,3.1.12,3.89l-2.6,1.48a13.28,13.28,0,0,1-.13-1.62,6.14,6.14,0,0,1-2.78,3.6c-2.39,1.35-3.32-.9-3.33-3.5a9.72,9.72,0,0,1,4.85-8.74c.42-.23.74-.41,1-.54v-2c0-1.06-.11-2.24-1.35-1.54s-1.32,1.9-1.38,3.13l-2.72,1.55c0-2.69.88-6,4.19-7.92,2.66-1.52,4.05-.54,4.07,2.92Zm-2.77-2.43a4.54,4.54,0,0,0-.93.45,4.19,4.19,0,0,0-2.2,3.85c0,1.1.37,2.14,1.43,1.54,1.46-.83,1.72-2.58,1.7-5.27Z"/><path d="M205.32,150.71c0,5.14-1,8.87-4.72,11-3.53,2-4.3-.59-4.38-2.76l2.85-1.62c.05.52.19,1.74,1.62.92s1.83-2.76,1.81-5.93v-.82a5.75,5.75,0,0,1-2.64,3.67c-2.64,1.5-3.78-1.25-3.81-6.58,0-6.21,1.48-10.45,4-11.88,1.63-.92,2.2-.12,2.4.56,0-.56.06-1.21.1-1.67l2.75-1.57c0,1.13,0,3,0,5.48ZM199,146.79c0,3.74.64,5,1.8,4.31,1.44-.82,1.74-3,1.72-6.88,0-3.26-.14-5.27-1.69-4.39C199.61,140.51,199,142.72,199,146.79Z"/><path d="M210.11,141.46c0,2.3.22,4.75,1.8,3.84s1.6-2.69,1.65-3.33l2.74-1.56c-.05.6-.29,6-4.41,8.38s-4.61-2.33-4.63-6.91c0-5.75,1.44-10.11,4.59-11.9,3.59-2,4.49,1.38,4.52,6.11,0,.64,0,1.5,0,1.82Zm3.43-5c0-1.76-.16-3.92-1.68-3.06s-1.72,3.68-1.72,5Z"/></g></g></svg>